<?xml version="1.0" encoding="utf-8"?>
<!-- Generator: Adobe Illustrator 28.2.0, SVG Export Plug-In . SVG Version: 6.00 Build 0)  -->
<svg version="1.1" id="Capa_1" xmlns="http://www.w3.org/2000/svg" xmlns:xlink="http://www.w3.org/1999/xlink" x="0px" y="0px"
	 viewBox="0 0 34.9 35" style="enable-background:new 0 0 34.9 35;" xml:space="preserve">
<style type="text/css">
	.st0{fill:#257E0E;}
</style>
<g id="elements">
	<path class="st0" d="M34.5,5.7c0.4-0.4,0.4-1.2,0-1.6c-0.3-0.3-0.6-0.4-1-0.3l-2.8,0.3L31,1.3c0.1-0.5-0.2-0.9-0.6-1.1
		s-1-0.1-1.3,0.2L26.6,3c-8.2-5.1-18.9-2.7-24,5.4S0,27.3,8.1,32.4S27,35,32,26.9c3.6-5.7,3.6-12.9,0-18.6L34.5,5.7z M17.3,19.5
		c-1,0-1.8-0.8-1.8-1.8s0.8-1.8,1.8-1.8l0,0h0.1l-1,1c-0.5,0.4-0.5,1.2,0,1.6l0,0l0,0c0.5,0.4,1.2,0.4,1.6,0l1.1-1
		c0,0.1,0,0.2,0,0.2C19.1,18.7,18.3,19.5,17.3,19.5z M17.3,26.1c-4.7,0-8.5-3.7-8.5-8.4s3.7-8.5,8.4-8.5c1.8,0,3.7,0.6,5.1,1.7
		L19.2,14c-0.6-0.3-1.3-0.5-1.9-0.5c-2.3,0-4.2,1.8-4.2,4.1s1.8,4.2,4.1,4.2s4.2-1.8,4.2-4.1c0-0.7-0.2-1.5-0.5-2.1l3.1-3.1
		c2.9,3.7,2.2,9-1.5,11.8C21,25.5,19.2,26.1,17.3,26.1L17.3,26.1z M24.6,5.2L24.2,9L24,9.2C19.4,5.5,12.6,6.3,8.9,11
		S6,22.4,10.6,26.1S22,29,25.7,24.4c3.2-4,3.1-9.6-0.1-13.5l0.2-0.2l3.8-0.4c0.2,0,0.4-0.1,0.6-0.2c1.4,2.3,2.1,5,2.1,7.7
		c0,8.4-6.7,15.1-15.1,15.2c-8.2-0.1-15-6.9-15-15.2s6.7-15.2,15-15.2c2.7,0,5.3,0.7,7.7,2.1C24.8,4.8,24.7,5,24.6,5.2z"/>
</g>
</svg>
