<?xml version="1.0" encoding="utf-8"?>
<!-- Generator: Adobe Illustrator 28.2.0, SVG Export Plug-In . SVG Version: 6.00 Build 0)  -->
<svg version="1.1" id="back" xmlns="http://www.w3.org/2000/svg" xmlns:xlink="http://www.w3.org/1999/xlink" x="0px" y="0px"
	 viewBox="0 0 27.3 27.3" style="enable-background:new 0 0 27.3 27.3;" xml:space="preserve">
<style type="text/css">
	.st0{fill:#257E0E;}
</style>
<path class="st0" d="M1.9,11c-1.1,0.2-1.8,1.3-1.5,2.4c0.2,0.7,0.8,1.3,1.5,1.5c5.7,0,10.4,4.7,10.4,10.4c0,1.1,0.9,2,2,2s2-0.9,2-2
	C16.2,17.4,9.8,11,1.9,11z"/>
<path class="st0" d="M1.9,0C0.9,0,0,0.9,0,2c0,1,0.9,1.9,1.9,1.9c11.8,0,21.4,9.6,21.4,21.4c0.2,1.1,1.3,1.8,2.4,1.5
	c0.7-0.2,1.3-0.8,1.5-1.5C27.2,11.3,15.9,0,1.9,0z"/>
<path class="st0" d="M2.6,22.1c-1.4,0-2.6,1.2-2.6,2.6s1.2,2.6,2.6,2.6s2.6-1.2,2.6-2.6l0,0l0,0C5.2,23.2,4,22.1,2.6,22.1z"/>
</svg>
